<?xml version="1.0" encoding="utf-8"?>
<!-- Generator: Adobe Illustrator 17.0.0, SVG Export Plug-In . SVG Version: 6.00 Build 0)  -->
<!DOCTYPE svg PUBLIC "-//W3C//DTD SVG 1.1//EN" "http://www.w3.org/Graphics/SVG/1.1/DTD/svg11.dtd">
<svg version="1.1" id="Layer_1" xmlns="http://www.w3.org/2000/svg" xmlns:xlink="http://www.w3.org/1999/xlink" x="0px" y="0px"
	 width="50px" height="50px" viewBox="-1 0 50 50" enable-background="new -1 0 50 50" xml:space="preserve">
<path fill="#DEDEDD" d="M23.973,0C10.174,0-1,11.199-1,24.998s11.174,24.998,24.973,24.998c13.824,0,25.023-11.199,25.023-24.998
	S37.797,0,23.973,0z M23.998,44.997C12.949,44.997,4,36.047,4,24.998S12.949,5,23.998,5s19.998,8.949,19.998,19.998
	S35.047,44.997,23.998,44.997z"/>
<path fill="none" d="M0,0h48v48H0V0z"/>
<path fill="#DEDEDD" d="M25.248,12.499h-3.75v14.999l13.124,7.874l1.875-3.075l-11.249-6.674V12.499z"/>
</svg>
