<?xml version="1.0" encoding="utf-8"?>
<!-- Generator: Adobe Illustrator 17.0.0, SVG Export Plug-In . SVG Version: 6.00 Build 0)  -->
<!DOCTYPE svg PUBLIC "-//W3C//DTD SVG 1.1//EN" "http://www.w3.org/Graphics/SVG/1.1/DTD/svg11.dtd">
<svg version="1.1" id="Layer_1" xmlns="http://www.w3.org/2000/svg" xmlns:xlink="http://www.w3.org/1999/xlink" x="0px" y="0px"
	 width="50px" height="50px" viewBox="0 0 50 50" enable-background="new 0 0 50 50" xml:space="preserve">
<path fill-rule="evenodd" clip-rule="evenodd" fill="#FFFFFF" d="M24.998,0.594c-13.817,0-25.022,11.203-25.022,25.025
	c0,11.055,7.169,20.434,17.114,23.744c1.251,0.23,1.708-0.543,1.708-1.206c0-0.594-0.022-2.168-0.034-4.256
	c-6.961,1.512-8.43-3.354-8.43-3.354c-1.138-2.891-2.778-3.66-2.778-3.66c-2.272-1.553,0.172-1.521,0.172-1.521
	c2.511,0.177,3.833,2.579,3.833,2.579c2.232,3.824,5.857,2.72,7.283,2.079c0.227-1.617,0.874-2.72,1.589-3.345
	C14.876,36.046,9.034,33.899,9.034,24.31c0-2.732,0.975-4.966,2.576-6.715c-0.257-0.633-1.116-3.177,0.245-6.623
	c0,0,2.101-0.673,6.881,2.565c1.996-0.555,4.137-0.833,6.265-0.842c2.125,0.01,4.266,0.287,6.265,0.842
	c4.777-3.238,6.875-2.565,6.875-2.565c1.365,3.445,0.506,5.989,0.249,6.623c1.604,1.749,2.572,3.983,2.572,6.715
	c0,9.613-5.851,11.729-11.425,12.348c0.899,0.773,1.699,2.3,1.699,4.634c0,3.345-0.031,6.044-0.031,6.865
	c0,0.669,0.451,1.448,1.721,1.203c9.935-3.316,17.098-12.689,17.098-23.741C50.024,11.797,38.819,0.594,24.998,0.594z"/>
</svg>
