<?xml version="1.0" encoding="utf-8"?>
<!-- Generator: Adobe Illustrator 17.0.0, SVG Export Plug-In . SVG Version: 6.00 Build 0)  -->
<!DOCTYPE svg PUBLIC "-//W3C//DTD SVG 1.1//EN" "http://www.w3.org/Graphics/SVG/1.1/DTD/svg11.dtd">
<svg version="1.1" id="Layer_1" xmlns="http://www.w3.org/2000/svg" xmlns:xlink="http://www.w3.org/1999/xlink" x="0px" y="0px"
	 width="50px" height="50px" viewBox="-13 0 50 50" enable-background="new -13 0 50 50" xml:space="preserve">
<path fill="none" d="M0,0h24v24H0V0z"/>
<path fill="#FFFFFF" d="M23.25,2.062c-4.35,0-8.525,2.025-11.25,5.225c-2.725-3.2-6.9-5.225-11.25-5.225
	c-7.7,0-13.75,6.05-13.75,13.75c0,9.45,8.5,17.15,21.375,28.85L12,47.938l3.625-3.3C28.5,32.962,37,25.262,37,15.812
	C37,8.113,30.95,2.062,23.25,2.062z M12.25,40.937L12,41.188l-0.25-0.25C-0.15,30.162-8,23.038-8,15.812c0-5,3.75-8.75,8.75-8.75
	c3.85,0,7.6,2.475,8.925,5.9h4.675c1.3-3.425,5.05-5.9,8.9-5.9c5,0,8.75,3.75,8.75,8.75C32,23.038,24.15,30.162,12.25,40.937z"/>
</svg>
