<?xml version="1.0" encoding="utf-8"?>
<!-- Generator: Adobe Illustrator 17.0.0, SVG Export Plug-In . SVG Version: 6.00 Build 0)  -->
<!DOCTYPE svg PUBLIC "-//W3C//DTD SVG 1.1//EN" "http://www.w3.org/Graphics/SVG/1.1/DTD/svg11.dtd">
<svg version="1.1" id="Layer_1" xmlns="http://www.w3.org/2000/svg" xmlns:xlink="http://www.w3.org/1999/xlink" x="0px" y="0px"
	 width="50px" height="50px" viewBox="0 0 50 50" enable-background="new 0 0 50 50" xml:space="preserve">
<g id="Layer_1_1_">
	<g>
		<path fill="#FFFFFF" d="M46.716,44.782c-1.651,1.959-3.677,3.35-6.122,4.151c-1.826,0.598-3.699,0.834-5.602,0.896
			c-6.608,0.218-13.216,0.222-19.826,0.041c-3.052-0.083-5.996-0.657-8.658-2.173c-1.411-0.804-2.567-1.966-3.553-3.309
			c-1.431-1.95-2.258-4.164-2.611-6.475c-0.333-2.182-0.351-4.428-0.333-6.654c0.002-0.283-0.017-0.567-0.026-0.851
			c0.022-4.385,0.018-8.769,0.076-13.152c0.03-2.287,0.06-4.585,0.662-6.819C2.217,4.891,5.858,1.64,11.441,0.521
			c2.515-0.504,5.079-0.457,7.628-0.477c5.278-0.041,10.556-0.107,15.833,0.105c2.23,0.09,4.436,0.334,6.522,1.193
			c4.626,1.905,7.194,5.442,8.09,10.281c0.399,2.154,0.391,4.34,0.432,6.519c0.104,5.408,0.097,10.817-0.063,16.225
			c-0.042,1.438-0.144,2.874-0.426,4.29c-0.437,2.193-1.28,4.206-2.635,5.993c-0.021,0.012-0.035,0.03-0.043,0.053
			C46.747,44.721,46.726,44.747,46.716,44.782z M45.193,35.541c0.244-0.27,0.2-0.607,0.214-0.929
			c0.187-4.471,0.164-8.944,0.107-13.416c-0.04-3.081,0.102-6.173-0.541-9.233c-0.299-1.423-0.776-2.716-1.656-3.853
			c-1.774-2.293-4.26-3.169-7.026-3.4c-3.308-0.276-6.626-0.247-9.942-0.243c-4.145,0.004-8.292-0.08-12.43,0.222
			C8.35,5.094,5.26,8.079,4.722,13.619c-0.364,3.74-0.255,7.496-0.231,11.247c-0.005,1.178-0.023,2.355-0.013,3.533
			c0.026,3.028-0.067,6.064,0.372,9.07c0.223,1.527,0.72,2.969,1.682,4.228c1.805,2.362,4.305,3.309,7.144,3.543
			c3.219,0.266,6.449,0.247,9.677,0.246c4.121-0.001,8.245,0.076,12.362-0.186c2.384-0.152,4.64-0.695,6.502-2.302
			C44.493,41.033,45.046,38.364,45.193,35.541z"/>
		<path fill="#FFFFFF" d="M36.745,30.19c-3.406,7.173-11.851,9.75-18.512,5.704c-1.863-1.132-3.216-2.676-4.354-4.485
			c-1.561-2.481-1.847-5.207-1.667-8.037c0.174-0.681,0.231-1.378,0.46-2.061c0.595-1.773,1.473-3.355,2.682-4.781
			c3.891-4.587,10.574-5.446,15.26-3.054c2.619,1.337,4.629,3.275,5.918,5.942c1.233,2.551,1.614,5.564,0.96,8.39
			C37.301,28.627,37.001,29.398,36.745,30.19z M16.76,23.653c-0.167,0.859-0.167,1.719-0.01,2.579
			c0.118,1.33,0.626,2.534,1.399,3.581c3.203,4.345,9.411,4.751,12.975,0.747c1.253-1.407,2.069-2.936,2.038-4.853
			c0.209-0.448,0.174-0.93,0.14-1.395c-0.165-2.28-1.189-4.086-2.897-5.614c-1.55-1.387-3.327-2.072-5.339-2.052
			c-3.702,0.037-6.292,1.861-7.844,5.198C16.942,22.416,17.011,23.075,16.76,23.653z"/>
		<path fill="#FFFFFF" d="M38.329,8.749c1.723,0,2.986,1.251,2.96,2.952c-0.029,1.876-1.478,3.027-3.035,3.016
			c-1.427-0.01-2.894-1.167-2.929-3.061C35.3,10.244,36.575,8.575,38.329,8.749z"/>
	</g>
</g>
</svg>
