<?xml version="1.0" encoding="utf-8"?>
<!-- Generator: Adobe Illustrator 17.0.0, SVG Export Plug-In . SVG Version: 6.00 Build 0)  -->
<!DOCTYPE svg PUBLIC "-//W3C//DTD SVG 1.1//EN" "http://www.w3.org/Graphics/SVG/1.1/DTD/svg11.dtd">
<svg version="1.1" id="Layer_1" xmlns="http://www.w3.org/2000/svg" xmlns:xlink="http://www.w3.org/1999/xlink" x="0px" y="0px"
	 width="50px" height="50px" viewBox="0 0 50 50" enable-background="new 0 0 50 50" xml:space="preserve">
<g>
	<rect x="0.781" y="16.603" fill="#FFFFFF" width="10.39" height="33.397"/>
	<path fill="#FFFFFF" d="M5.979,12.036c-3.336,0-6.022-2.697-6.022-6.02C-0.043,2.698,2.644,0,5.979,0
		c3.32,0,6.016,2.698,6.016,6.016C11.995,9.34,9.3,12.036,5.979,12.036z"/>
	<path fill="#FFFFFF" d="M50.043,50H39.671V33.76c0-3.873-0.074-8.856-5.394-8.856c-5.403,0-6.227,4.218-6.227,8.575V50H17.683
		V16.603h9.95v4.563h0.142c1.384-2.626,4.773-5.394,9.823-5.394c10.502,0,12.445,6.915,12.445,15.91V50z"/>
</g>
</svg>
