<?xml version="1.0" encoding="utf-8"?>
<!-- Generator: Adobe Illustrator 17.0.0, SVG Export Plug-In . SVG Version: 6.00 Build 0)  -->
<!DOCTYPE svg PUBLIC "-//W3C//DTD SVG 1.1//EN" "http://www.w3.org/Graphics/SVG/1.1/DTD/svg11.dtd">
<svg version="1.1" id="Layer_1" xmlns="http://www.w3.org/2000/svg" xmlns:xlink="http://www.w3.org/1999/xlink" x="0px" y="0px"
	 width="50px" height="50px" viewBox="0 0 50 50" enable-background="new 0 0 50 50" xml:space="preserve">
<path fill="#DEDEDD" d="M50,37.548c-16.676,0-33.323,0-49.975,0c0,2.776,0,5.531,0,8.287c16.668,0,33.316,0,49.975,0
	C50,43.068,50,40.321,50,37.548z M9.474,16.617c-0.795,0.06-1.808,0.039-2.781,0.225c-3.617,0.691-6.384,3.798-6.634,7.476
	c-0.108,1.586-0.034,3.184-0.041,4.777c0,0.016,0.021,0.032,0.033,0.05c6.92,0,13.84,0,20.785,0c0-0.136,0-0.249,0-0.363
	c0-1.187-0.009-2.375,0.002-3.562c0.02-2.305-0.739-4.308-2.33-5.976c-1.25-1.312-2.773-2.164-4.571-2.433
	c-0.919-0.137-1.859-0.138-2.727-0.196c1.066-0.169,2.102-0.595,3.006-1.316c0.914-0.729,1.599-1.631,2.033-2.719
	c0.432-1.083,0.527-2.201,0.303-3.341c-0.561-2.855-3.296-5.09-6.161-5.073C7.4,4.182,4.641,6.609,4.212,9.703
	C3.825,12.503,6.001,16.187,9.474,16.617z M29.199,29.145c6.954,0,13.873,0,20.794,0c0-2.778,0-5.533,0-8.302
	c-6.937,0-13.856,0-20.794,0C29.199,23.616,29.199,26.37,29.199,29.145z M29.197,12.473c6.942,0,13.869,0,20.794,0
	c0-2.776,0-5.53,0-8.289c-6.939,0-13.858,0-20.794,0C29.197,6.956,29.197,9.709,29.197,12.473z"/>
</svg>
