<?xml version="1.0" encoding="utf-8"?>
<!-- Generator: Adobe Illustrator 17.0.0, SVG Export Plug-In . SVG Version: 6.00 Build 0)  -->
<!DOCTYPE svg PUBLIC "-//W3C//DTD SVG 1.1//EN" "http://www.w3.org/Graphics/SVG/1.1/DTD/svg11.dtd">
<svg version="1.1" id="Layer_1" xmlns="http://www.w3.org/2000/svg" xmlns:xlink="http://www.w3.org/1999/xlink" x="0px" y="0px"
	 width="50px" height="50px" viewBox="0 0 50 50" enable-background="new 0 0 50 50" xml:space="preserve">
<path fill="#FFFFFF" d="M48.658,5.436c-0.805,2.392-2.278,4.241-4.396,5.59c0.244,0.061,1.759-0.225,2.914-0.542
	c0.961-0.263,1.896-0.601,2.824-0.98c-0.669,1.037-1.442,1.986-2.295,2.871c-0.853,0.884-1.779,1.686-2.766,2.402
	c0,0.214-0.006,0.416,0.001,0.617c0.034,0.979-0.002,1.956-0.081,2.932c-0.317,3.893-1.378,7.578-3.118,11.068
	c-1.62,3.248-3.747,6.122-6.424,8.579c-3.292,3.022-7.098,5.12-11.405,6.308c-1.39,0.383-2.803,0.654-4.234,0.833
	c-1.745,0.219-3.497,0.292-5.252,0.212c-5.141-0.234-9.896-1.723-14.26-4.452C0.108,40.837,0.051,40.799,0,40.752
	c6.911,0.756,12.263-1.951,15.106-4.26c-2.836-0.124-5.242-1.175-7.2-3.205c-1.08-1.12-1.851-2.43-2.346-3.948
	c1.541,0.283,3.045,0.241,4.533-0.166c-2.71-0.644-4.867-2.089-6.42-4.402c-1.17-1.743-1.721-3.678-1.716-5.812
	c0.726,0.385,1.453,0.696,2.219,0.908c0.768,0.213,1.549,0.343,2.38,0.369c-2.886-2.108-4.44-4.902-4.509-8.465
	C2.011,9.907,2.492,8.166,3.435,6.529c3.851,4.631,8.618,7.844,14.369,9.57c2.211,0.664,4.473,1.044,6.801,1.157
	c-0.026-0.145-0.046-0.265-0.069-0.384c-0.196-1.026-0.237-2.057-0.119-3.095c0.216-1.912,0.906-3.636,2.092-5.148
	c1.587-2.024,3.646-3.307,6.175-3.795c3.424-0.661,6.846,0.412,9.295,2.898c0.123,0.125,0.228,0.149,0.391,0.114
	c2.145-0.459,4.171-1.227,6.071-2.323c0.051-0.029,0.102-0.059,0.154-0.086C48.603,5.432,48.617,5.436,48.658,5.436z"/>
</svg>
