<?xml version="1.0" encoding="utf-8"?>
<!-- Generator: Adobe Illustrator 17.0.0, SVG Export Plug-In . SVG Version: 6.00 Build 0)  -->
<!DOCTYPE svg PUBLIC "-//W3C//DTD SVG 1.1//EN" "http://www.w3.org/Graphics/SVG/1.1/DTD/svg11.dtd">
<svg version="1.1" id="Layer_1" xmlns="http://www.w3.org/2000/svg" xmlns:xlink="http://www.w3.org/1999/xlink" x="0px" y="0px"
	 width="50px" height="50px" viewBox="0 0 50 50" enable-background="new 0 0 50 50" xml:space="preserve">
<g>
	<g>
		<path fill="#DEDEDD" d="M49.925,12.517c-0.001-2.315-1.267-3.592-3.526-3.592c-7.122,0-14.244,0-21.366,0
			c-7.192,0-14.385,0-21.577,0c-2.108,0-3.446,1.305-3.449,3.466c-0.012,8.456-0.009,16.911,0.013,25.367
			c0.005,2.022,1.286,3.273,3.259,3.278c3.737,0.009,7.474,0.007,11.212,0.005c2.201-0.001,2.879-0.488,3.723-2.601
			c1.024-2.565,2.071-5.121,3.094-7.686c0.685-1.717,1.978-2.619,3.722-2.705c1.581-0.078,3.043,1.182,3.717,2.889
			c1.054,2.667,2.138,5.321,3.204,7.983c0.584,1.459,1.588,2.163,3.177,2.141c3.807-0.052,7.617-0.098,11.422,0.011
			c2.237,0.064,3.405-1.752,3.396-3.514C49.904,29.212,49.93,20.865,49.925,12.517z M13.628,30.66
			c-2.998-0.044-5.551-2.637-5.538-5.627c0.013-3.087,2.716-5.779,5.732-5.709c2.945,0.069,5.464,2.778,5.387,5.794
			C19.13,28.209,16.617,30.703,13.628,30.66z M36.169,30.662c-2.951-0.03-5.521-2.726-5.442-5.71
			c0.08-3.058,2.639-5.642,5.573-5.628c2.959,0.014,5.627,2.772,5.575,5.765C41.823,28.152,39.221,30.693,36.169,30.662z"/>
	</g>
</g>
</svg>
