<?xml version="1.0" encoding="utf-8"?>
<!-- Generator: Adobe Illustrator 17.0.0, SVG Export Plug-In . SVG Version: 6.00 Build 0)  -->
<!DOCTYPE svg PUBLIC "-//W3C//DTD SVG 1.1//EN" "http://www.w3.org/Graphics/SVG/1.1/DTD/svg11.dtd">
<svg version="1.1" id="Layer_1" xmlns="http://www.w3.org/2000/svg" xmlns:xlink="http://www.w3.org/1999/xlink" x="0px" y="0px"
	 width="1312px" height="642px" viewBox="0 0 1312 642" enable-background="new 0 0 1312 642" xml:space="preserve">
<g>
	<polygon id="A" fill="#232323" points="3.649,300.485 151.167,0.485 283.649,300.485 209.839,300.485 118.818,94.755 
		17.653,300.481 	"/>
	<rect id="K" x="716.649" y="0.484" fill="#232323" width="68" height="300"/>
	<polygon id="A_2_" fill="#232323" points="963.649,300.493 1111.166,0.493 1243.649,300.493 1169.839,300.493 1078.818,94.763 
		977.653,300.49 	"/>
	<rect id="I_1_" x="1175.649" y="341.484" fill="#232323" width="68" height="300.001"/>
	<polygon id="A_1_" fill="#232323" points="591.649,641.485 739.166,341.485 871.649,641.485 797.839,641.485 706.818,435.754 
		605.653,641.481 	"/>
	
		<rect id="lightblue" x="-4.432" y="204.453" transform="matrix(0.9915 -0.1298 0.1298 0.9915 -21.8367 86.9592)" fill="#9D7CB8" width="1320.865" height="13"/>
	<rect id="darkblue" x="545.458" y="485.004" width="377.981" height="9.979"/>
	
		<rect id="grey" x="681.962" y="231.249" transform="matrix(0.8717 0.49 -0.49 0.8717 228.9412 -396.1106)" fill="#B7B6B2" width="377.98" height="15.842"/>
	<rect id="I" x="593.649" y="0.485" fill="#232323" width="68.004" height="300"/>
	<polygon id="F" fill="#232323" points="338.649,0.502 338.649,300.485 406.653,300.485 406.653,13.502 538.649,13.502 
		538.649,0.502 	"/>
	<polygon id="N" fill="#232323" points="3.649,340.485 3.147,641.516 16.147,641.516 16.147,439.336 263.653,640.516 
		263.151,341.485 250.151,341.485 250.151,541.714 	"/>
	<polygon id="Y" fill="#232323" points="283.095,341.485 390.751,341.485 500.347,430.953 609.658,341.485 630.213,341.485 
		510.648,439.329 510.648,641.485 442.648,641.485 442.648,471.661 	"/>
	<polygon id="T" fill="#232323" points="886.146,341.485 886.146,354.485 952.648,354.485 952.648,641.485 1020.648,641.485 
		1020.648,354.485 1086.146,354.485 1086.146,341.485 	"/>
</g>
</svg>
