<?xml version="1.0" encoding="utf-8"?>
<!-- Generator: Adobe Illustrator 17.0.0, SVG Export Plug-In . SVG Version: 6.00 Build 0)  -->
<!DOCTYPE svg PUBLIC "-//W3C//DTD SVG 1.1//EN" "http://www.w3.org/Graphics/SVG/1.1/DTD/svg11.dtd">
<svg version="1.1" id="Layer_1" xmlns="http://www.w3.org/2000/svg" xmlns:xlink="http://www.w3.org/1999/xlink" x="0px" y="0px"
	 width="50px" height="50px" viewBox="0 0 50 50" enable-background="new 0 0 50 50" xml:space="preserve">
<g>
	<path fill="#FFFFFF" d="M3.328,46.65c0-0.081,0-0.14,0-0.199c0-2.751,0.001-5.502-0.003-8.254c0-0.132,0.041-0.221,0.133-0.312
		c9.264-9.181,18.526-18.365,27.788-27.548c0.042-0.042,0.086-0.081,0.116-0.109c2.797,2.797,5.588,5.588,8.387,8.387
		c-0.029,0.031-0.072,0.079-0.117,0.125c-9.175,9.254-18.35,18.507-27.522,27.763c-0.106,0.107-0.21,0.148-0.36,0.148
		c-2.727-0.004-5.455-0.003-8.182-0.003C3.496,46.65,3.424,46.65,3.328,46.65z"/>
	<path fill="#FFFFFF" d="M26.553,11.396c-1.11,1.108-2.22,2.217-3.342,3.338c-0.615-0.618-1.247-1.252-1.888-1.896
		c-1.449,1.449-2.88,2.88-4.297,4.298c-1.129-1.129-2.242-2.242-3.371-3.371c1.417-1.417,2.849-2.849,4.269-4.269
		C17.05,8.622,16.179,7.75,15.319,6.89c-2.857,2.857-5.726,5.726-8.59,8.59c2.615,2.615,5.245,5.245,7.859,7.859
		c-1.139,1.14-2.25,2.252-3.348,3.351C7.509,22.96,3.76,19.209,0.022,15.47C5.11,10.382,10.22,5.272,15.323,0.169
		C19.058,3.903,22.806,7.649,26.553,11.396z"/>
	<path fill="#FFFFFF" d="M49.815,34.933c-5.092,5.012-10.2,10.04-15.302,15.062c-3.758-3.757-7.504-7.502-11.232-11.229
		c1.106-1.105,2.219-2.217,3.33-3.326c2.594,2.594,5.224,5.224,7.871,7.871c2.896-2.815,5.768-5.607,8.65-8.409
		c-0.881-0.962-1.751-1.911-2.613-2.852c-1.437,1.437-2.867,2.868-4.281,4.281c-1.142-1.142-2.254-2.254-3.368-3.368
		c1.404-1.404,2.834-2.834,4.283-4.282c-0.655-0.574-1.284-1.125-1.895-1.66c1.115-1.115,2.227-2.227,3.323-3.323
		C42.302,27.42,46.052,31.169,49.815,34.933z"/>
	<path fill="#FFFFFF" d="M33.803,7.777c0.603-0.601,1.214-1.211,1.824-1.82c0.505-0.504,1.01-1.007,1.512-1.514
		c0.134-0.136,0.242-0.298,0.38-0.429c0.483-0.459,1.06-0.636,1.703-0.46c0.553,0.152,1.052,0.435,1.462,0.843
		c1.724,1.717,3.442,3.44,5.163,5.16c0.119,0.118,0.248,0.226,0.365,0.346c0.603,0.62,0.692,1.583,0.208,2.393
		c-0.119,0.199-0.263,0.389-0.426,0.553c-1.164,1.175-2.336,2.342-3.506,3.511c-0.021,0.021-0.044,0.039-0.053,0.047
		C39.56,13.534,36.689,10.664,33.803,7.777z"/>
</g>
</svg>
