<?xml version="1.0" encoding="utf-8"?>
<!-- Generator: Adobe Illustrator 17.0.0, SVG Export Plug-In . SVG Version: 6.00 Build 0)  -->
<!DOCTYPE svg PUBLIC "-//W3C//DTD SVG 1.1//EN" "http://www.w3.org/Graphics/SVG/1.1/DTD/svg11.dtd">
<svg version="1.1" id="Layer_1" xmlns="http://www.w3.org/2000/svg" xmlns:xlink="http://www.w3.org/1999/xlink" x="0px" y="0px"
	 width="50px" height="50px" viewBox="0 0 50 50" enable-background="new 0 0 50 50" xml:space="preserve">
<g>
	<path fill="#FFFFFF" d="M49.847,11.584c-0.01-0.008-0.018-0.017-0.029-0.023l-0.017-0.009L34.718,4.01
		c-0.102-0.051-0.209-0.086-0.317-0.113c-0.136-0.035-0.275-0.056-0.415-0.056c-0.578,0-1.153,0.29-1.464,0.796l-8.684,14.111
		l10.897,17.708l15.158-24.631C49.944,11.743,49.92,11.641,49.847,11.584z"/>
	<polygon fill="#FFFFFF" points="19.056,15.533 19.056,31.596 33.333,38.735 	"/>
	<path fill="#FFFFFF" d="M35.478,39.807l11.753,5.876C48.76,46.448,50,45.913,50,44.488V16.21L35.478,39.807z"/>
	<path fill="#FFFFFF" d="M16.577,11.607L1.846,4.241C1.58,4.108,1.327,4.045,1.098,4.045C0.452,4.045,0,4.544,0,5.382v31.805
		c0,0.851,0.623,1.86,1.385,2.24l12.975,6.487c0.333,0.166,0.649,0.245,0.936,0.245c0.806,0,1.372-0.624,1.372-1.671V11.752
		C16.667,11.69,16.632,11.634,16.577,11.607z"/>
</g>
</svg>
